<svg t="1706324254029" class="icon" viewBox="0 0 1024 1024" version="1.1" xmlns="http://www.w3.org/2000/svg"
    p-id="27436" width="24" height="24">
    <path d="M106.688 213.248a32 32 0 0 1 32-32h522.688a32 32 0 0 1 0 64H138.688a32 32 0 0 1-32-32z" fill="#000"
        p-id="27437"></path>
    <path d="M106.688 213.248a32 32 0 0 1 32-32h522.688a32 32 0 0 1 0 64H138.688a32 32 0 0 1-32-32z" fill="#FFFFFF"
        fill-opacity=".2" p-id="27438"></path>
    <path d="M554.688 456a32 32 0 0 1 32-32h298.688a32 32 0 0 1 0 64H586.688a32 32 0 0 1-32-32z" fill="#000"
        p-id="27439"></path>
    <path d="M554.688 456a32 32 0 0 1 32-32h298.688a32 32 0 0 1 0 64H586.688a32 32 0 0 1-32-32z" fill="#FFFFFF"
        fill-opacity=".2" p-id="27440"></path>
    <path d="M400 181.248a32 32 0 0 1 32 32v634.688a32 32 0 0 1-64 0V213.248a32 32 0 0 1 32-32z" fill="#000"
        p-id="27441"></path>
    <path d="M400 181.248a32 32 0 0 1 32 32v634.688a32 32 0 0 1-64 0V213.248a32 32 0 0 1 32-32z" fill="#FFFFFF"
        fill-opacity=".2" p-id="27442"></path>
    <path d="M736 424a32 32 0 0 1 32 32v392a32 32 0 0 1-64 0V456a32 32 0 0 1 32-32z" fill="#000" p-id="27443"></path>
    <path d="M736 424a32 32 0 0 1 32 32v392a32 32 0 0 1-64 0V456a32 32 0 0 1 32-32z" fill="#FFFFFF" fill-opacity=".2"
        p-id="27444"></path>
</svg>