<svg t="1706331043594" class="icon" viewBox="0 0 1152 1024" version="1.1" xmlns="http://www.w3.org/2000/svg"
    p-id="27977" width="23" height="23">
    <path
        d="M823.228942 387.242667a36.693333 36.693333 0 0 0-35.271111-24.689778c-14.336 0-30.378667 9.898667-35.157333 24.689778l-198.428445 454.826666c-9.671111 19.797333 0 46.193778 19.171556 56.035556 19.228444 9.898667 44.828444 0 54.442667-19.740445l49.607111-107.121777h228.864l49.607111 112.071111c4.778667 14.791111 19.171556 24.689778 35.214222 24.689778 4.778667 0 9.557333 0 14.392889-4.949334 14.392889-19.740444 24.007111-41.187556 14.392889-60.984889l-196.835556-454.826666z m-35.271111 113.777777l80.042667 177.948445h-153.6l73.614222-178.005333zM421.593387 24.632889C416.700942 9.898667 400.715164 0 381.48672 0c-14.392889 0-30.378667 9.898667-39.992889 24.689778L3.801387 837.12c-9.614222 19.797333 0 46.193778 19.228444 56.035556 19.171556 9.898667 44.828444 0 54.385778-19.740445l104.049778-245.532444h401.635555l4.835556-9.898667 40.049778-87.324444v-9.898667l-206.506667-496.071111z m-35.271111 123.619555l163.271111 398.791112H223.051164l163.271112-398.791112z"
        fill="#000000" fill-opacity=".6" p-id="27978"></path>
</svg>